# xmcd
#
# Track frame offsets: 
#        150
#        14901
#        31968
#        49467
#        65754
#        78941
#        100024
#        120339
#        149050
#        170842
#        185781
#        209389
#        232823
#        247048
#        259997
#        283135
#        298051
#        321719
#
# Disc length: 4667 seconds
#
# Revision: 0
# Processed by: cddbd v1.5.2PL0 Copyright (c) Steve Scherf et al.
# Submitted via: ExactAudioCopy v0.99pb5
#
DISCID=29123912
DTITLE=Various Artist - Barrio Latino: Estrella de Paris
DYEAR=2007
DGENRE=Latin
TTITLE0=Apollo Nove/Traz Um Alivio
TTITLE1=Mahala Raï Banda vs. Nouvelle Vague/Morceau d'Amour
TTITLE2=Novalima/Cardo
TTITLE3=Tango Fusion Club/Hablando Tango
TTITLE4=Carmen Ruiz/Federico
TTITLE5=Dreamers Inc. ft. Karolina/Midnight Summer Dream
TTITLE6=Afterlife ft. Neve/Elijah
TTITLE7=Africando/Bogne Sirala
TTITLE8=Jol/No Me La Muevas
TTITLE9=Candyman/Tendon
TTITLE10=Ayhan Sicimoglu/Reggaeturkaton
TTITLE11=Mystic Diversion ft. Nadine Renee/Janeiro (Mobasound vs. Mass
TTITLE11=ivan Remix)
TTITLE12=Luz Marian/En La Luna
TTITLE13=Hanna Haïs/Jazz Samba (Ian Carey Remix)
TTITLE14=Franky Castellanos/La Manera Latina
TTITLE15=Carlos Campos/MC Calypso (Always There)
TTITLE16=Silverius/Corazon
TTITLE17=Tune Brothers/Serenata (Eddie Thoneick Remix)
EXTD=
EXTT0=
EXTT1=
EXTT2=
EXTT3=
EXTT4=
EXTT5=
EXTT6=
EXTT7=
EXTT8=
EXTT9=
EXTT10=
EXTT11=
EXTT12=
EXTT13=
EXTT14=
EXTT15=
EXTT16=
EXTT17=
PLAYORDER=
